<?xml version="1.0" encoding="utf-8"?>
<!-- Generator: Adobe Illustrator 18.1.1, SVG Export Plug-In . SVG Version: 6.00 Build 0)  -->
<svg version="1.1" id="Layer_1" xmlns="http://www.w3.org/2000/svg" xmlns:xlink="http://www.w3.org/1999/xlink" x="0px" y="0px"
	 viewBox="0 0 45 55" enable-background="new 0 0 45 55" xml:space="preserve">
<path id="market-research_3_" fill="#FFCE55" d="M12.1,30.9v3.7c0,0.2-0.2,0.3-0.3,0.3H9.9c-0.2,0-0.3-0.2-0.3-0.3v-3.7
	c0-0.2,0.2-0.3,0.3-0.3h1.9C12,30.6,12.1,30.8,12.1,30.9z M19.7,29h-1.9c-0.2,0-0.3,0.2-0.3,0.3v5.3c0,0.2,0.2,0.3,0.3,0.3h1.9
	c0.2,0,0.3-0.2,0.3-0.3v-5.3C20,29.2,19.8,29,19.7,29z M15.7,27.4h-1.9c-0.2,0-0.3,0.2-0.3,0.3v7c0,0.2,0.2,0.3,0.3,0.3h1.9
	c0.2,0,0.3-0.2,0.3-0.3v-7C16.1,27.5,15.9,27.4,15.7,27.4z M23.6,25.7h-1.9c-0.2,0-0.3,0.2-0.3,0.3v8.6c0,0.2,0.2,0.3,0.3,0.3h1.9
	c0.2,0,0.3-0.2,0.3-0.3v-8.6C23.9,25.9,23.8,25.7,23.6,25.7z M25.9,18.3l-5.6,1.5c-0.2,0-0.2,0.2-0.1,0.3l1.5,1.5l-3.1,3.1
	c-0.1,0.1-0.3,0.1-0.5,0l-3-3c-0.1-0.1-0.3-0.1-0.5,0l-5,5c-0.1,0.1-0.1,0.3,0,0.5l0.6,0.6c0.1,0.1,0.3,0.1,0.5,0l3.9-3.9
	c0.1-0.1,0.3-0.1,0.5,0l3,3c0.1,0.1,0.3,0.1,0.5,0l4.2-4.2l1.4,1.4c0.1,0.1,0.3,0.1,0.3-0.1l1.6-5.5C26.2,18.3,26.1,18.2,25.9,18.3z
	 M43.7,49.8l-3,3c-0.3,0.3-0.8,0.3-1.1,0l-9-9c-0.3-0.3-0.3-0.8,0-1.1l0.8-0.8l-1.7-1.7l-0.3,0.3c-0.2,0.2-0.6,0.2-0.8,0l-0.9-0.9
	c-6.4,5.2-15.8,4.8-21.8-1.2c-6.4-6.4-6.4-16.8,0-23.2C12.2,9,22.6,9,29,15.4c5.9,5.9,6.3,15,1.5,21.5l1,1c0.2,0.2,0.2,0.6,0,0.8
	l-0.3,0.3l0.9,0.9l0,0l0.7,0.7l0.8-0.8c0.3-0.3,0.8-0.3,1.1,0l8.4,8.4l0.6,0.6C44,49,44,49.5,43.7,49.8z M26.9,17.5
	c-5.2-5.2-13.7-5.2-18.9,0c-5.2,5.2-5.2,13.7,0,18.9c5.2,5.2,13.7,5.2,18.9,0C32.1,31.2,32.1,22.7,26.9,17.5z"/>
<path id="strategy-and-planning_3_" fill="#F36E53" d="M41.2,15.4c-1.5,0-1.8-0.8-1.8-1.9s0.3-1.9,1.8-1.9h2c-0.3-1.7-1-3.4-1.9-4.8
	l-1.5,1.3c-1.1,1-1.9,0.6-2.6-0.1c-0.7-0.8-1-1.6,0.1-2.6l1.4-1.3c-1.6-1.3-3.5-2.1-5.6-2.4v1.9c0,1.5-0.8,1.8-1.9,1.8
	c-1,0-1.9-0.3-1.9-1.8V1.7c-2,0.3-3.9,1.1-5.4,2.3l1.4,1.4c1.1,1.1,0.7,1.9-0.1,2.6c-0.7,0.7-1.5,1.1-2.6,0l-1.3-1.3
	c-1,1.4-1.7,3.1-2,4.9h2c1.5,0,1.8,0.8,1.8,1.9s-0.3,1.9-1.8,1.9h-2.1c0.3,1.8,0.9,3.4,1.8,4.9l1.6-1.4c1.1-1,1.9-0.6,2.6,0.1
	c0.7,0.8,1,1.6-0.1,2.6L23.8,23c1.6,1.3,3.6,2.2,5.8,2.6v-2.2c0-1.5,0.8-1.8,1.9-1.8c1,0,1.9,0.3,1.9,1.8v2.2
	c1.8-0.3,3.4-0.9,4.8-1.9l-1.5-1.5c-1.1-1.1-0.7-1.9,0.1-2.6c0.7-0.7,1.5-1.1,2.6,0l1.6,1.6c1.3-1.6,2.2-3.6,2.5-5.8H41.2z
	 M31.4,19.2c-3.1,0-5.6-2.5-5.6-5.6c0-3.1,2.5-5.6,5.6-5.6c3.1,0,5.6,2.5,5.6,5.6C37,16.7,34.5,19.2,31.4,19.2z M35.3,13.7
	c0,2.2-1.8,3.9-3.9,3.9c-2.2,0-3.9-1.8-3.9-3.9c0-2.2,1.8-3.9,3.9-3.9C33.6,9.8,35.3,11.5,35.3,13.7z M31.4,11.8
	c-1.1,0-1.9,0.8-1.9,1.9c0,1,0.9,1.9,1.9,1.9c1.1,0,1.9-0.9,1.9-1.9C33.3,12.6,32.4,11.8,31.4,11.8z"/>
</svg>
